<svg width="34" height="34" viewBox="0 0 34 34" fill="none" xmlns="http://www.w3.org/2000/svg">
<path d="M16.7441 14.5741C18.1898 14.5741 19.5763 13.9998 20.5985 12.9776C21.6208 11.9553 22.1951 10.5688 22.1951 9.12309C22.1951 7.67739 21.6208 6.2909 20.5985 5.26863C19.5763 4.24636 18.1898 3.67206 16.7441 3.67206C15.2984 3.67206 13.9119 4.24636 12.8896 5.26863C11.8673 6.2909 11.293 7.67739 11.293 9.12309C11.293 10.5688 11.8673 11.9553 12.8896 12.9776C13.9119 13.9998 15.2984 14.5741 16.7441 14.5741ZM7.88614 18.6624C8.7897 18.6624 9.65626 18.3035 10.2952 17.6645C10.9341 17.0256 11.293 16.1591 11.293 15.2555C11.293 14.3519 10.9341 13.4854 10.2952 12.8465C9.65626 12.2075 8.7897 11.8486 7.88614 11.8486C6.98257 11.8486 6.11602 12.2075 5.4771 12.8465C4.83818 13.4854 4.47924 14.3519 4.47924 15.2555C4.47924 16.1591 4.83818 17.0256 5.4771 17.6645C6.11602 18.3035 6.98257 18.6624 7.88614 18.6624ZM29.0089 15.2555C29.0089 16.1591 28.65 17.0256 28.011 17.6645C27.3721 18.3035 26.5056 18.6624 25.602 18.6624C24.6984 18.6624 23.8319 18.3035 23.193 17.6645C22.554 17.0256 22.1951 16.1591 22.1951 15.2555C22.1951 14.3519 22.554 13.4854 23.193 12.8465C23.8319 12.2075 24.6984 11.8486 25.602 11.8486C26.5056 11.8486 27.3721 12.2075 28.011 12.8465C28.65 13.4854 29.0089 14.3519 29.0089 15.2555ZM16.7441 15.9369C18.5512 15.9369 20.2843 16.6548 21.5621 17.9326C22.84 19.2104 23.5579 20.9435 23.5579 22.7507V30.9272H9.93028V22.7507C9.93028 20.9435 10.6482 19.2104 11.926 17.9326C13.2038 16.6548 14.9369 15.9369 16.7441 15.9369ZM7.20476 22.7507C7.20476 21.8063 7.34104 20.8946 7.59723 20.0333L7.36557 20.0524C6.19752 20.1807 5.11792 20.7356 4.33379 21.6107C3.54965 22.4859 3.11618 23.6197 3.11649 24.7948V30.9272H7.20476V22.7507ZM30.3716 30.9272V24.7948C30.3718 23.5797 29.9082 22.4104 29.0755 21.5255C28.2428 20.6406 27.1037 20.1069 25.8909 20.0333C26.1457 20.8946 26.2834 21.8063 26.2834 22.7507V30.9272H30.3716Z" fill="#508CFF"/>
</svg>
