<svg width="32" height="32" viewBox="0 0 32 32" fill="none" xmlns="http://www.w3.org/2000/svg">
<path d="M15.8164 31.6566C11.7037 31.6566 7.7595 30.0085 4.85141 27.0749C1.94332 24.1413 0.30957 20.1625 0.30957 16.0138C0.30957 11.865 1.94332 7.88624 4.85141 4.95264C7.7595 2.01905 11.7037 0.370972 15.8164 0.370972C19.929 0.370972 23.8733 2.01905 26.7813 4.95264C29.6894 7.88624 31.3232 11.865 31.3232 16.0138C31.3232 20.1625 29.6894 24.1413 26.7813 27.0749C23.8733 30.0085 19.929 31.6566 15.8164 31.6566ZM15.8164 29.5702C19.3805 29.5702 22.7987 28.142 25.3189 25.5996C27.8391 23.0573 29.255 19.6092 29.255 16.0138C29.255 12.4184 27.8391 8.97025 25.3189 6.42792C22.7987 3.88559 19.3805 2.45733 15.8164 2.45733C12.2522 2.45733 8.83408 3.88559 6.31386 6.42792C3.79364 8.97025 2.37779 12.4184 2.37779 16.0138C2.37779 19.6092 3.79364 23.0573 6.31386 25.5996C8.83408 28.142 12.2522 29.5702 15.8164 29.5702ZM10.6468 12.8852C10.37 12.8938 10.0943 12.8462 9.83609 12.7452C9.57787 12.6442 9.34239 12.492 9.14359 12.2975C8.9448 12.103 8.78675 11.8702 8.67881 11.613C8.57088 11.3557 8.51527 11.0792 8.51527 10.7998C8.51527 10.5205 8.57088 10.244 8.67881 9.98669C8.78675 9.72942 8.9448 9.49664 9.14359 9.30215C9.34239 9.10765 9.57787 8.95542 9.83609 8.85446C10.0943 8.75351 10.37 8.7059 10.6468 8.71445C11.1841 8.73105 11.6939 8.95804 12.0682 9.34731C12.4424 9.73658 12.6517 10.2576 12.6517 10.7998C12.6517 11.3421 12.4424 11.8631 12.0682 12.2524C11.6939 12.6416 11.1841 12.8686 10.6468 12.8852ZM20.986 12.8852C20.7092 12.8938 20.4335 12.8462 20.1753 12.7452C19.917 12.6442 19.6815 12.492 19.4828 12.2975C19.284 12.103 19.1259 11.8702 19.018 11.613C18.91 11.3557 18.8544 11.0792 18.8544 10.7998C18.8544 10.5205 18.91 10.244 19.018 9.98669C19.1259 9.72942 19.284 9.49664 19.4828 9.30215C19.6815 9.10765 19.917 8.95542 20.1753 8.85446C20.4335 8.75351 20.7092 8.7059 20.986 8.71445C21.5233 8.73105 22.0331 8.95804 22.4073 9.34731C22.7816 9.73658 22.9909 10.2576 22.9909 10.7998C22.9909 11.3421 22.7816 11.8631 22.4073 12.2524C22.0331 12.6416 21.5233 12.8686 20.986 12.8852ZM5.61871 17.582C5.55037 17.4636 5.5058 17.3328 5.48757 17.197C5.46933 17.0613 5.47778 16.9233 5.51242 16.7908C5.5824 16.5233 5.75485 16.2948 5.99185 16.1555C6.22884 16.0163 6.51096 15.9777 6.77614 16.0483C7.04132 16.1189 7.26784 16.2929 7.40587 16.5319C9.64273 20.4035 12.4223 22.2709 15.8164 22.2709C19.2085 22.2709 21.99 20.4016 24.2288 16.5319C24.3721 16.3043 24.5973 16.1415 24.8571 16.0779C25.1168 16.0142 25.3909 16.0546 25.6218 16.1905C25.8527 16.3264 26.0223 16.5474 26.0951 16.8068C26.1679 17.0663 26.1381 17.3442 26.0121 17.582C23.4283 22.0539 20.0032 24.3573 15.8164 24.3573C11.6295 24.3573 8.20253 22.0539 5.61871 17.582Z" fill="#508CFF"/>
</svg>
