<svg width="36" height="37" viewBox="0 0 36 37" fill="none" xmlns="http://www.w3.org/2000/svg">
<path d="M16.0449 23.6175C16.6324 24.2051 17.3914 24.493 18.3217 24.4812C19.252 24.4695 19.9375 24.1326 20.3781 23.4706L28.6039 11.1319L16.2652 19.3577C15.6042 19.7984 15.2556 20.4717 15.2194 21.3775C15.1831 22.2833 15.4583 23.03 16.0449 23.6175ZM18.3217 6.72522C19.7661 6.72522 21.1557 6.92695 22.4904 7.33041C23.8251 7.73386 25.0796 8.34003 26.2537 9.1489L23.4628 10.9116C22.6549 10.4954 21.8167 10.1835 20.9481 9.97589C20.0794 9.76828 19.204 9.66399 18.3217 9.66301C15.0656 9.66301 12.2928 10.8078 10.0033 13.0973C7.71378 15.3868 6.56951 18.1591 6.57049 21.4142C6.57049 22.4424 6.7115 23.4584 6.99353 24.4622C7.27556 25.4659 7.67314 26.4084 8.18627 27.2898H28.4571C29.0201 26.3595 29.4304 25.3925 29.688 24.3887C29.9455 23.385 30.0738 22.3445 30.0728 21.2673C30.0728 20.386 29.9686 19.5291 29.76 18.6967C29.5514 17.8644 29.2395 17.0565 28.8243 16.2731L30.587 13.4821C31.3214 14.6328 31.9031 15.8569 32.332 17.1544C32.7609 18.4519 32.9871 19.7984 33.0106 21.1939C33.0341 22.5893 32.875 23.9236 32.5332 25.1966C32.1915 26.4696 31.6896 27.6815 31.0276 28.8321C30.7583 29.2728 30.3911 29.6155 29.926 29.8604C29.4608 30.1052 28.9712 30.2276 28.4571 30.2276H8.18627C7.67216 30.2276 7.18253 30.1052 6.71737 29.8604C6.25222 29.6155 5.885 29.2728 5.6157 28.8321C4.97918 27.7304 4.48955 26.5617 4.1468 25.3259C3.80406 24.09 3.63269 22.7861 3.63269 21.4142C3.63269 19.3822 4.01852 17.479 4.79018 15.7046C5.56184 13.9302 6.61455 12.3756 7.94831 11.0408C9.28207 9.7061 10.8425 8.65339 12.6297 7.88271C14.4168 7.11203 16.3142 6.7262 18.3217 6.72522Z" fill="#508CFF"/>
</svg>
